<svg 
          width="30" 
          height="30" fill="none" 
          xmlns="http://www.w3.org/2000/svg">
          <path d="M 5.999999841054281 13.00000031789144 C 8.333333134651184 17.666666905085247 12.333333094914755 21.499999364217125 16.999999682108562 23.999999364217125 L 20.66666603088379 20.333333015441895 C 21.166666050752003 19.83333299557368 21.833332677682243 19.66666666169961 22.333332697550457 20 C 24.16666607062022 20.666666676600773 26.16666674613953 21.00000063578288 28.333333333333336 21.00000063578288 C 29.333333373069767 21.00000063578288 30 21.666667262713116 30 22.666667302449547 L 30 28.333333333333336 C 30 29.333333373069767 29.333333373069767 30 28.333333333333336 30 C 12.666667302449547 30 0 17.333332697550457 0 1.6666666666666667 C 0 0.6666666269302368 0.8333333333333334 0 1.6666666666666667 0 L 7.5 0 C 8.50000003973643 0 9.166666666666668 0.6666666269302368 9.166666666666668 1.6666666666666667 C 9.166666666666668 3.6666667461395264 9.50000062584877 5.666666428248087 10.166667302449545 7.666666507720947 C 10.333333971599739 8.166666527589163 10.166666035850843 8.833333949247995 9.833332697550457 9.333333969116211 L 5.999999841054281 13.00000031789144 Z M 18.333333333333336 0 C 17.333333293596905 0 16.666666666666668 0.6666666269302368 16.666666666666668 1.6666666666666667 C 16.666666666666668 2.6666667064030967 17.333333293596905 3.3333333333333335 18.333333333333336 3.3333333333333335 C 19.333333373069767 3.3333333333333335 20 2.6666667064030967 20 1.6666666666666667 C 20 0.6666666269302368 19.333333373069767 0 18.333333333333336 0 Z M 23.333333333333336 0 C 22.333333293596905 0 21.666666666666668 0.6666666269302368 21.666666666666668 1.6666666666666667 C 21.666666666666668 2.6666667064030967 22.333333293596905 3.3333333333333335 23.333333333333336 3.3333333333333335 C 24.333333373069767 3.3333333333333335 25 2.6666667064030967 25 1.6666666666666667 C 25 0.6666666269302368 24.333333373069767 0 23.333333333333336 0 Z M 28.333333333333336 0 C 27.333333293596905 0 26.666666666666668 0.6666666269302368 26.666666666666668 1.6666666666666667 C 26.666666666666668 2.6666667064030967 27.333333293596905 3.3333333333333335 28.333333333333336 3.3333333333333335 C 29.333333373069767 3.3333333333333335 30 2.6666667064030967 30 1.6666666666666667 C 30 0.6666666269302368 29.333333373069767 0 28.333333333333336 0 Z M 18.333333333333336 5 C 17.333333293596905 5 16.666666666666668 5.666666626930237 16.666666666666668 6.666666666666667 C 16.666666666666668 7.666666706403097 17.333333293596905 8.333333333333334 18.333333333333336 8.333333333333334 C 19.333333373069767 8.333333333333334 20 7.666666706403097 20 6.666666666666667 C 20 5.666666626930237 19.333333373069767 5 18.333333333333336 5 Z M 23.333333333333336 5 C 22.333333293596905 5 21.666666666666668 5.666666626930237 21.666666666666668 6.666666666666667 C 21.666666666666668 7.666666706403097 22.333333293596905 8.333333333333334 23.333333333333336 8.333333333333334 C 24.333333373069767 8.333333333333334 25 7.666666706403097 25 6.666666666666667 C 25 5.666666626930237 24.333333373069767 5 23.333333333333336 5 Z M 28.333333333333336 5 C 27.333333293596905 5 26.666666666666668 5.666666626930237 26.666666666666668 6.666666666666667 C 26.666666666666668 7.666666706403097 27.333333293596905 8.333333333333334 28.333333333333336 8.333333333333334 C 29.333333373069767 8.333333333333334 30 7.666666706403097 30 6.666666666666667 C 30 5.666666626930237 29.333333373069767 5 28.333333333333336 5 Z M 18.333333333333336 10 C 17.333333293596905 10 16.666666666666668 10.666666626930239 16.666666666666668 11.666666666666668 C 16.666666666666668 12.666666706403097 17.333333293596905 13.333333333333334 18.333333333333336 13.333333333333334 C 19.333333373069767 13.333333333333334 20 12.666666706403097 20 11.666666666666668 C 20 10.666666626930239 19.333333373069767 10 18.333333333333336 10 Z M 23.333333333333336 10 C 22.333333293596905 10 21.666666666666668 10.666666626930239 21.666666666666668 11.666666666666668 C 21.666666666666668 12.666666706403097 22.333333293596905 13.333333333333334 23.333333333333336 13.333333333333334 C 24.333333373069767 13.333333333333334 25 12.666666706403097 25 11.666666666666668 C 25 10.666666626930239 24.333333373069767 10 23.333333333333336 10 Z M 28.333333333333336 10 C 27.333333293596905 10 26.666666666666668 10.666666626930239 26.666666666666668 11.666666666666668 C 26.666666666666668 12.666666706403097 27.333333293596905 13.333333333333334 28.333333333333336 13.333333333333334 C 29.333333373069767 13.333333333333334 30 12.666666706403097 30 11.666666666666668 C 30 10.666666626930239 29.333333373069767 10 28.333333333333336 10 Z" fill="rgb(109.43750202655792,109.43750202655792,109.43750202655792)"/>
        </svg>