<svg 
          width="36.66666793823242" 
          height="30" fill="none" 
          xmlns="http://www.w3.org/2000/svg">
          <path d="M 3.33333344893022 30 L 28.33333431590687 30 C 29.217389345121845 30 30.065235097755977 29.648809880018238 30.69035636521618 29.023688634236656 C 31.31547763267638 28.398567388455074 31.666667764837094 27.550721665223442 31.666667764837094 26.666666666666668 L 31.666667764837094 16.666666666666668 L 25.000000866976652 16.666666666666668 L 25.000000866976652 20 L 18.33333396911621 15 L 25.000000866976652 10 L 25.000000866976652 13.333333333333334 L 31.666667764837094 13.333333333333334 L 31.666667764837094 3.3333333333333335 C 31.666667764837094 2.4492783347765608 31.31547763267638 1.60143181681633 30.69035636521618 0.9763105710347494 C 30.065235097755977 0.3511893252531687 29.217389345121845 7.401486830834377e-16 28.33333431590687 0 L 3.33333344893022 0 C 2.4492784197152457 7.401486830834377e-16 1.6014318723524896 0.3511893252531687 0.9763106048922882 0.9763105710347494 C 0.3511893374320866 1.60143181681633 7.401487087511028e-16 2.4492783347765608 0 3.3333333333333335 L 0 26.666666666666668 C 7.401487087511028e-16 27.550721665223442 0.3511893374320866 28.398567388455074 0.9763106048922882 29.023688634236656 C 1.6014318723524896 29.648809880018238 2.4492784197152457 30 3.33333344893022 30 Z M 3.33333344893022 20 L 10.00000034679066 20 L 10.00000034679066 23.333333333333336 L 3.33333344893022 23.333333333333336 L 3.33333344893022 20 Z M 3.33333344893022 13.333333333333334 L 15.00000052018599 13.333333333333334 L 15.00000052018599 16.666666666666668 L 3.33333344893022 16.666666666666668 L 3.33333344893022 13.333333333333334 Z M 3.33333344893022 6.666666666666667 L 15.00000052018599 6.666666666666667 L 15.00000052018599 10 L 3.33333344893022 10 L 3.33333344893022 6.666666666666667 Z M 31.666667764837094 13.333333333333334 L 36.66666793823242 13.333333333333334 L 36.66666793823242 16.666666666666668 L 31.666667764837094 16.666666666666668 L 31.666667764837094 13.333333333333334 Z" fill="rgb(109.43750202655792,109.43750202655792,109.43750202655792)"/>
        </svg>