<svg 
          width="33.23570251464844" 
          height="36.66666793823242" fill="none" 
          xmlns="http://www.w3.org/2000/svg">
          <path d="M 23.333333333333336 3.33333344893022 L 15 3.33333344893022 L 15 16.6666672446511 L 10.833333333333334 12.916667114604603 L 6.666666666666667 16.6666672446511 L 6.666666666666667 3.33333344893022 L 3.3333333333333335 3.33333344893022 L 3.3333333333333335 30.00000104037198 L 13.466666539510092 30.00000104037198 C 13.633333208660286 31.18333437897942 13.983332614103952 32.30000111218655 14.483332633972168 33.3333344893022 L 3.3333333333333335 33.3333344893022 C 1.4833333094914756 33.3333344893022 0 31.85000112837011 0 30.00000104037198 L 0 3.33333344893022 C 0 1.500000012282168 1.4833333094914756 0 3.3333333333333335 0 L 23.333333333333336 0 C 25.183333357175194 0 26.666666666666668 1.500000012282168 26.666666666666668 3.33333344893022 L 26.666666666666668 16.80000045545173 C 26.11666664481163 16.716667117986713 25.566666672627132 16.6666672446511 25 16.6666672446511 C 24.433333327372868 16.6666672446511 23.883333355188373 16.716667117986713 23.333333333333336 16.80000045545173 L 23.333333333333336 3.33333344893022 Z M 32.99999872843425 30.666667094375125 C 33.166665397584445 30.666667094375125 33.166665397584445 30.83333503590391 32.99999872843425 31.00000171083395 L 31.333332061767578 33.83333323507593 C 31.166665392617386 33.99999991000597 31.000000002483528 34.00000054330535 30.833333333333336 34.00000054330535 L 28.833332061767578 33.3333344893022 C 28.333332041899364 33.66666783916228 28.000000019868214 33.83333450167468 27.5 34.166667851534754 L 27.166665395100914 36.3333333217736 C 27.166665395100914 36.499999996703636 27.000000638266403 36.66666793823242 26.83333396911621 36.66666793823242 L 23.50000063578288 36.66666793823242 C 23.333333966632686 36.66666793823242 23.16666539758444 36.499999996703636 22.999998728434246 36.3333333217736 L 22.666667302449547 34.166667851534754 C 22.166667282581333 34.00000117660472 21.666665400067966 33.66666783916228 21.333332061767578 33.3333344893022 L 19.33333396911621 34.166667851534754 C 19.16666729996602 34.166667851534754 19.000000320374966 34.16666721823538 18.833333651224773 34.00000054330535 L 17.166666984558105 31.16666901906336 C 17.000000315407913 31.00000234413332 17.166666028400265 30.833333769305163 17.333332697550457 30.666667094375125 L 19.166666666666668 29.333334986368836 L 19.166666666666668 27.666668261903727 L 17.333332697550457 26.33333297498294 C 17.166666028400265 26.166666300052903 17.166666984558105 26.000000904139245 17.166666984558105 25.833334229209207 L 18.833333651224773 23.00000111550997 C 19.000000320374966 22.833334440579932 19.16666729996602 22.83333380728056 19.33333396911621 22.83333380728056 L 21.333332061767578 23.666668758970363 C 21.833332081635792 23.333335409110287 22.166667282581333 23.166667157140637 22.666667302449547 22.83333380728056 L 22.999998728434246 20.666666747584465 C 22.999998728434246 20.500000072654426 23.16666729748249 20.333333720582893 23.50000063578288 20.333333720582893 L 26.83333396911621 20.333333720582893 C 27.000000638266403 20.333333720582893 27.166665395100914 20.500000072654426 27.166665395100914 20.666666747584465 L 27.5 22.83333380728056 C 28.000000019868214 23.0000004822106 28.49999934434891 23.333335409110287 28.999999364217125 23.666668758970363 L 31.00000063578288 22.83333380728056 C 31.16666730493307 22.83333380728056 31.499999364217125 22.833334440579932 31.499999364217125 23.00000111550997 L 33.16666603088379 25.833334229209207 C 33.333332700033985 26.000000904139245 33.166665397584445 26.166666300052903 32.99999872843425 26.33333297498294 L 31.166667938232422 27.666668261903727 L 31.166667938232422 29.333334986368836 L 32.99999872843425 30.666667094375125 Z M 27.5 28.33333431590687 C 27.5 27.00000091646657 26.33333335320155 25.833334229209207 25 25.833334229209207 C 23.66666664679845 25.833334229209207 22.5 27.00000091646657 22.5 28.33333431590687 C 22.5 29.666667715347174 23.66666664679845 30.833334402604535 25 30.833334402604535 C 26.33333335320155 30.833334402604535 27.5 29.666667715347174 27.5 28.33333431590687 Z" fill="rgb(109.43750202655792,109.43750202655792,109.43750202655792)"/>
        </svg>