<svg 
          width="33.33333206176758" 
          height="26.66666603088379" fill="none" 
          xmlns="http://www.w3.org/2000/svg">
          <path d="M 29.99999885559082 6.666666507720947 L 3.333333206176758 6.666666507720947 L 3.333333206176758 3.3333332538604736 L 29.99999885559082 3.3333332538604736 M 29.99999885559082 23.333332777023315 L 3.333333206176758 23.333332777023315 L 3.333333206176758 13.333333015441895 L 29.99999885559082 13.333333015441895 M 29.99999885559082 0 L 3.333333206176758 0 C 1.4833332529068004 0 0 1.4833332741260534 0 3.3333332538604736 L 0 23.333332777023315 C 7.401486548490062e-16 24.217387754502575 0.35118931185635915 25.06523345751999 0.9763105337914567 25.69035468839752 C 1.6014317557265543 26.31547591927505 2.449278241344007 26.66666603088379 3.333333206176758 26.66666603088379 L 29.99999885559082 26.66666603088379 C 30.88405382042357 26.66666603088379 31.731899511312463 26.31547591927505 32.35702073324756 25.69035468839752 C 32.982141955182655 25.06523345751999 33.33333206176758 24.217387754502575 33.33333206176758 23.333332777023315 L 33.33333206176758 3.3333332538604736 C 33.33333206176758 1.4833332741260534 31.833332158724467 0 29.99999885559082 0 Z" fill="rgb(109.43750202655792,109.43750202655792,109.43750202655792)"/>
        </svg>